<svg id="drawing-board" width="400" height="300" xmlns="http://www.w3.org/2000/svg">
        <!--<rect width="100%" height="100%" fill="white" />-->
    <path stroke="black" fill="none" d="M202,59.125 L199,59.125 L191,57.125 L183,56.125 L173,55.125 L165,55.125 L158,55.125 L150,55.125 L149,55.125 L136,59.125 L132,61.125 L127,63.125 L121,68.125 L115,73.125 L111,78.125 L107,84.125 L103,91.125 L101,99.125 L100,102.125 L100,115.125 L101,124.125 L104,131.125 L109,139.125 L116,145.125 L123,150.125 L132,154.125 L140,156.125 L150,157.125 L158,157.125 L168,157.125 L177,155.125 L188,152.125 L199,148.125 L208,144.125 L218,140.125 L227,135.125 L234,131.125 L239,126.125 L243,121.125 L245,116.125 L247,111.125 L247,107.125 L248,104.125 L248,99.125 L248,95.125 L248,91.125 L247,88.125 L246,84.125 L244,80.125 L240,76.125 L237,73.125 L233,69.125 L228,66.125 L223,63.125 L217,60.125 L211,58.125 L205,56.125 L199,55.125 L193,54.125 L188,53.125 L182,53.125 L177,53.125 L172,53.125 L167,54.125 L163,55.125 L160,56.125 L157,57.125 L155,58.125 L153,58.125 L153,59.125"/></svg>